<?xml version="1.0" encoding="utf-8"?>
<!-- Generator: Adobe Illustrator 27.5.0, SVG Export Plug-In . SVG Version: 6.00 Build 0)  -->
<svg version="1.1" id="Capa_1" xmlns="http://www.w3.org/2000/svg" xmlns:xlink="http://www.w3.org/1999/xlink" x="0px" y="0px"
	 width="352px" height="68px" viewBox="0 0 352 68" style="enable-background:new 0 0 352 68;" xml:space="preserve">
<style type="text/css">
	.st0{fill:#55595A;}
	.st1{fill:#FFFFFF;}
	.st2{fill:#43B12E;}
</style>
<g>
	<g>
		<g>
			<path class="st0" d="M250.2,37.3h-3.4c-0.4,0-0.8,0-1.3,0.1c-0.5,0.1-0.9,0.2-1.3,0.4c-0.4,0.2-0.8,0.5-1,1
				c-0.3,0.4-0.4,1-0.4,1.8c0,1.1,0.3,1.8,1,2.3c0.7,0.4,1.6,0.6,2.7,0.6c0.2,0,0.4,0,0.7,0c0.3,0,0.6,0,0.9-0.1
				c0.3,0,0.7-0.1,1-0.2c0.4-0.1,0.7-0.2,1-0.3V37.3z M254.4,44.4c0,0.6-0.2,1-0.7,1.2c-0.5,0.2-1.1,0.5-1.7,0.6
				c-0.6,0.2-1.2,0.3-1.9,0.4c-0.6,0.1-1.3,0.2-1.9,0.2c-0.6,0-1.2,0.1-1.8,0.1c-1.5,0-2.8-0.2-3.9-0.5c-1-0.3-1.8-0.8-2.4-1.4
				c-0.6-0.6-1-1.2-1.2-2c-0.2-0.8-0.4-1.6-0.4-2.4c0-0.9,0.1-1.7,0.4-2.6c0.3-0.8,0.7-1.5,1.3-2.2c0.6-0.6,1.4-1.1,2.4-1.5
				c1-0.4,2.2-0.6,3.6-0.6h4v-0.6c0-0.5-0.1-0.9-0.1-1.3c-0.1-0.4-0.3-0.7-0.5-1.1c-0.3-0.3-0.6-0.5-1.1-0.7
				c-0.5-0.2-1.1-0.3-1.8-0.3c-0.8,0-1.7,0.1-2.6,0.2c-0.9,0.1-1.7,0.3-2.3,0.5c-0.3,0.1-0.4,0.1-0.5,0c-0.1-0.1-0.2-0.2-0.2-0.4
				l-0.5-2.2c-0.1-0.4,0-0.7,0.3-0.8c1-0.4,2.1-0.7,3.2-0.9c1.2-0.2,2.3-0.2,3.3-0.2c2.4,0,4.2,0.6,5.4,1.7c1.1,1.2,1.7,2.9,1.7,5.1
				V44.4z"/>
			<path class="st0" d="M276.5,37.3h-3.4c-0.4,0-0.8,0-1.3,0.1c-0.5,0.1-0.9,0.2-1.3,0.4c-0.4,0.2-0.8,0.5-1,1
				c-0.3,0.4-0.4,1-0.4,1.8c0,1.1,0.3,1.8,1,2.3c0.7,0.4,1.6,0.6,2.7,0.6c0.2,0,0.4,0,0.7,0c0.3,0,0.6,0,0.9-0.1
				c0.3,0,0.7-0.1,1-0.2c0.4-0.1,0.7-0.2,1-0.3V37.3z M280.7,44.4c0,0.6-0.2,1-0.7,1.2c-0.5,0.2-1.1,0.5-1.7,0.6
				c-0.6,0.2-1.2,0.3-1.9,0.4c-0.6,0.1-1.3,0.2-1.9,0.2c-0.6,0-1.2,0.1-1.8,0.1c-1.6,0-2.8-0.2-3.9-0.5c-1-0.3-1.8-0.8-2.4-1.4
				c-0.6-0.6-1-1.2-1.2-2c-0.2-0.8-0.4-1.6-0.4-2.4c0-0.9,0.1-1.7,0.4-2.6c0.3-0.8,0.7-1.5,1.3-2.2c0.6-0.6,1.4-1.1,2.4-1.5
				c1-0.4,2.2-0.6,3.6-0.6h4v-0.6c0-0.5,0-0.9-0.1-1.3c-0.1-0.4-0.3-0.7-0.5-1.1c-0.3-0.3-0.6-0.5-1.1-0.7c-0.5-0.2-1.1-0.3-1.8-0.3
				c-0.8,0-1.7,0.1-2.6,0.2c-0.9,0.1-1.7,0.3-2.3,0.5c-0.3,0.1-0.4,0.1-0.5,0c-0.1-0.1-0.2-0.2-0.3-0.4l-0.5-2.2
				c-0.1-0.4,0-0.7,0.3-0.8c1-0.4,2.1-0.7,3.2-0.9c1.2-0.2,2.3-0.2,3.3-0.2c2.4,0,4.2,0.6,5.4,1.7c1.1,1.2,1.7,2.9,1.7,5.1V44.4z"/>
			<path class="st0" d="M309.4,29.9c-0.6,0-1.2,0.1-1.7,0.4c-0.5,0.3-0.9,0.6-1.3,1.1c-0.3,0.5-0.6,1-0.9,1.6
				c-0.2,0.6-0.3,1.2-0.3,1.8h8.1c0-0.7-0.1-1.3-0.2-1.9c-0.1-0.6-0.3-1.1-0.6-1.5c-0.3-0.4-0.7-0.8-1.2-1.1
				C310.9,30.1,310.2,29.9,309.4,29.9 M309.4,26.3c2.7,0,4.7,0.7,6,2.2c1.3,1.5,2,3.5,2,6.1c0,0.7-0.1,1.2-0.2,1.6
				c-0.1,0.4-0.4,0.8-0.6,1c-0.3,0.3-0.6,0.4-0.9,0.5c-0.3,0.1-0.7,0.2-1.1,0.2h-9.4c0,1,0.1,1.8,0.4,2.5c0.3,0.7,0.6,1.2,1,1.6
				c0.5,0.4,1,0.7,1.5,0.9c0.6,0.2,1.2,0.3,1.9,0.3c0.7,0,1.5-0.1,2.2-0.3c0.7-0.2,1.4-0.4,1.9-0.7c0.4-0.2,0.6-0.1,0.8,0.2l1,2.1
				c0.2,0.4,0.1,0.7-0.3,0.9c-0.9,0.6-1.9,1-2.9,1.2c-1.1,0.2-2.1,0.3-3,0.3c-2.8,0-5-0.8-6.5-2.5c-1.5-1.6-2.3-4.2-2.3-7.8
				c0-1.7,0.2-3.1,0.6-4.4c0.4-1.3,1-2.4,1.7-3.3c0.8-0.9,1.6-1.6,2.7-2C307,26.5,308.1,26.3,309.4,26.3"/>
			<path class="st0" d="M347.6,37.3h-3.4c-0.4,0-0.8,0-1.3,0.1c-0.5,0.1-0.9,0.2-1.3,0.4c-0.4,0.2-0.7,0.5-1,1
				c-0.3,0.4-0.4,1-0.4,1.8c0,1.1,0.3,1.8,1,2.3c0.7,0.4,1.6,0.6,2.7,0.6c0.2,0,0.4,0,0.7,0c0.3,0,0.6,0,0.9-0.1
				c0.3,0,0.7-0.1,1-0.2c0.4-0.1,0.7-0.2,1-0.3V37.3z M351.7,44.4c0,0.6-0.2,1-0.7,1.2c-0.5,0.2-1.1,0.5-1.7,0.6
				c-0.6,0.2-1.2,0.3-1.9,0.4c-0.6,0.1-1.3,0.2-1.9,0.2c-0.6,0-1.2,0.1-1.8,0.1c-1.5,0-2.8-0.2-3.9-0.5c-1-0.3-1.8-0.8-2.4-1.4
				c-0.6-0.6-1-1.2-1.2-2c-0.2-0.8-0.4-1.6-0.4-2.4c0-0.9,0.1-1.7,0.4-2.6c0.3-0.8,0.7-1.5,1.3-2.2c0.6-0.6,1.4-1.1,2.4-1.5
				c1-0.4,2.2-0.6,3.6-0.6h3.9v-0.6c0-0.5,0-0.9-0.1-1.3c-0.1-0.4-0.3-0.8-0.5-1.1c-0.3-0.3-0.6-0.5-1.1-0.7
				c-0.5-0.2-1.1-0.3-1.8-0.3c-0.8,0-1.7,0.1-2.6,0.2c-0.9,0.1-1.7,0.3-2.3,0.5c-0.3,0.1-0.5,0.1-0.6,0c-0.1-0.1-0.2-0.2-0.2-0.4
				l-0.5-2.2c-0.1-0.4,0-0.7,0.3-0.8c1-0.4,2.1-0.7,3.2-0.9c1.2-0.2,2.3-0.2,3.3-0.2c2.4,0,4.2,0.6,5.4,1.7c1.1,1.2,1.7,2.9,1.7,5.1
				V44.4z"/>
			<path class="st0" d="M239.4,20.3c-0.1-0.1-0.3-0.2-0.6-0.2h-9.9c-1.2,0-2.2,0.2-3,0.6c-0.8,0.4-1.5,0.9-1.9,1.5
				c-0.5,0.6-0.9,1.4-1,2.2c-0.2,0.8-0.3,1.7-0.3,2.6v18.9c0,0.3,0.1,0.5,0.2,0.6c0.1,0.1,0.3,0.2,0.6,0.2h1.1
				c0.8-0.1,2.4-0.5,2.4-2.9v-8.7h10.6c0.3,0,0.5-0.1,0.6-0.2c0.1-0.2,0.1-0.4,0.1-0.6v-2.1c0-0.4,0-0.6-0.1-0.7
				c-0.1-0.1-0.3-0.2-0.6-0.2h-10.6v-4.4c0-0.8,0.2-1.4,0.6-1.8c0.4-0.4,1-0.6,1.9-0.6h9.4c0.3,0,0.5-0.1,0.6-0.2
				c0.1-0.1,0.2-0.3,0.2-0.7v-2.3C239.5,20.6,239.5,20.4,239.4,20.3"/>
			<path class="st0" d="M294.9,39.7c-0.2,0.8-0.6,1.5-1,2c-0.4,0.5-0.9,0.9-1.5,1.1c-0.6,0.2-1.3,0.4-2,0.4c-0.5,0-1,0-1.6-0.1
				c-0.6-0.1-1.2-0.2-1.8-0.4V30.7c0.7-0.3,1.5-0.4,2.2-0.5c0.7-0.1,1.2-0.1,1.6-0.1c1.4,0,2.5,0.5,3.3,1.6c0.8,1.1,1.2,2.7,1.2,4.9
				C295.3,37.8,295.2,38.9,294.9,39.7 M299,32.4c-0.3-1.3-0.8-2.3-1.4-3.2c-0.6-0.9-1.5-1.6-2.5-2.1c-1-0.5-2.2-0.8-3.6-0.8
				c-0.6,0-1.4,0.1-2.2,0.2c-0.8,0.1-1.6,0.3-2.2,0.5l0-7.3c0-0.3,0-0.5-0.1-0.6c-0.1-0.1-0.3-0.1-0.5-0.1h-1.1
				c-0.8,0.1-2.3,0.5-2.3,2.8v22.9c0,0.2,0,0.4,0.1,0.6c0.1,0.1,0.2,0.2,0.4,0.3c1.1,0.5,2.2,0.9,3.5,1.1c1.3,0.2,2.5,0.3,3.7,0.3
				c1.5,0,2.9-0.3,4-0.8c1.1-0.5,2-1.3,2.8-2.2c0.7-0.9,1.3-2.1,1.6-3.4c0.3-1.3,0.5-2.7,0.5-4.2C299.5,35,299.4,33.6,299,32.4"/>
			<path class="st0" d="M326.4,45.7l-0.2-2.1c0-0.2-0.1-0.3-0.2-0.4c-0.1-0.1-0.2-0.1-0.4,0c-0.2,0-0.4,0-0.6,0.1
				c-0.2,0-0.5,0-0.6,0c-0.5,0-0.8-0.1-1-0.4c-0.2-0.2-0.2-0.7-0.2-1.3V19.6c0-0.3-0.1-0.5-0.2-0.5c-0.1-0.1-0.3-0.1-0.5-0.1h-1.1
				c-0.8,0.1-2.2,0.5-2.3,2.8v20.9c0,1.6,0.3,2.8,0.9,3.4c0.6,0.7,1.6,1,2.9,1c0.5,0,1,0,1.6-0.1c0.6-0.1,1.1-0.2,1.6-0.4
				c0.2-0.1,0.4-0.2,0.4-0.3C326.4,46.1,326.4,45.9,326.4,45.7"/>
			<path class="st0" d="M335.4,45.7l-0.2-2.1c0-0.2-0.1-0.3-0.2-0.4c-0.1-0.1-0.2-0.1-0.4,0c-0.2,0-0.4,0-0.6,0.1
				c-0.2,0-0.5,0-0.6,0c-0.5,0-0.8-0.1-1-0.4c-0.2-0.2-0.2-0.7-0.2-1.3V19.6c0-0.3-0.1-0.5-0.2-0.5c-0.1-0.1-0.3-0.1-0.5-0.1h-1.1
				c-0.8,0.1-2.3,0.5-2.3,2.9v20.7c0,1.6,0.3,2.8,0.9,3.4c0.6,0.7,1.6,1,2.9,1c0.5,0,1,0,1.6-0.1c0.6-0.1,1.1-0.2,1.6-0.4
				c0.2-0.1,0.4-0.2,0.4-0.3C335.4,46.1,335.4,45.9,335.4,45.7"/>
			<path class="st0" d="M264.4,45.7l-0.2-2.1c0-0.2-0.1-0.3-0.2-0.4c-0.1-0.1-0.2-0.1-0.4,0c-0.2,0-0.4,0-0.6,0.1
				c-0.3,0-0.5,0-0.6,0c-0.5,0-0.8-0.1-0.9-0.4c-0.2-0.2-0.3-0.7-0.3-1.3V19.6c0-0.3,0-0.5-0.2-0.5c-0.1-0.1-0.3-0.1-0.5-0.1h-1.1
				c-0.8,0.1-2.3,0.5-2.3,2.9v20.7c0,1.6,0.3,2.8,0.9,3.4c0.6,0.7,1.6,1,2.9,1c0.5,0,1,0,1.6-0.1c0.6-0.1,1.1-0.2,1.6-0.4
				c0.2-0.1,0.4-0.2,0.4-0.3C264.5,46.1,264.5,45.9,264.4,45.7"/>
		</g>
		<g>
			<path class="st0" d="M82.1,26.4c0-1.1,0.2-2.1,0.5-3c0.4-0.9,0.9-1.7,1.6-2.4c0.7-0.7,1.6-1.2,2.7-1.5c1.1-0.4,2.4-0.5,3.8-0.5
				c0.7,0,1.4,0,2.1,0.1c0.7,0.1,1.5,0.2,2.2,0.3c0.7,0.1,1.5,0.3,2.2,0.5c0.7,0.2,1.3,0.4,1.9,0.7c0.2,0.1,0.3,0.3,0.4,0.4
				c0,0.1,0,0.3-0.1,0.5l-0.9,2.6c-0.1,0.3-0.2,0.4-0.3,0.5c-0.1,0-0.2,0-0.5,0c-1.3-0.4-2.5-0.8-3.8-1c-1.2-0.2-2.4-0.3-3.4-0.3
				c-1.3,0-2.3,0.3-2.9,0.8c-0.6,0.6-0.9,1.2-0.9,2c0,0.5,0.1,0.9,0.3,1.3c0.2,0.4,0.6,0.7,1.1,1.1c0.5,0.4,1.1,0.7,1.8,1.1
				c0.7,0.4,1.6,0.7,2.7,1.2c1.1,0.5,2.2,0.9,3.2,1.4c1,0.5,1.9,1,2.6,1.7c0.8,0.6,1.4,1.4,1.8,2.3c0.4,0.9,0.7,1.9,0.7,3.2
				c0,1.4-0.2,2.5-0.7,3.5c-0.5,1-1.2,1.8-2,2.5c-0.9,0.7-1.9,1.1-3.1,1.5C94,46.9,92.8,47,91.4,47c-1.6,0-3.3-0.2-5.1-0.5
				c-1.8-0.3-3.4-0.9-4.9-1.7c-0.4-0.2-0.4-0.5-0.2-0.9l1.1-2.6c0.2-0.4,0.5-0.5,0.9-0.3c1.2,0.5,2.5,0.9,3.8,1.3
				c1.3,0.4,2.6,0.5,3.8,0.5c2,0,3.3-0.3,4.1-1c0.8-0.7,1.2-1.5,1.2-2.5c0-0.6-0.1-1-0.3-1.4c-0.2-0.4-0.5-0.8-1-1.1
				c-0.4-0.4-1-0.7-1.7-1c-0.7-0.3-1.5-0.7-2.4-1c-1.4-0.5-2.6-1.1-3.7-1.6c-1.1-0.5-2-1.1-2.8-1.8c-0.7-0.6-1.3-1.4-1.7-2.1
				C82.3,28.3,82.1,27.4,82.1,26.4"/>
			<path class="st0" d="M112,25.7c2.9,0,5.1,0.8,6.6,2.3c1.4,1.5,2.1,3.6,2.1,6.3c0,0.7-0.1,1.2-0.2,1.7c-0.2,0.4-0.4,0.8-0.7,1
				c-0.3,0.3-0.6,0.4-1,0.5c-0.4,0.1-0.8,0.2-1.2,0.2h-10.2c0,1,0.2,1.8,0.5,2.5c0.3,0.7,0.7,1.3,1.2,1.7c0.5,0.4,1,0.7,1.7,0.9
				c0.6,0.2,1.3,0.3,2.1,0.3c0.8,0,1.6-0.1,2.4-0.3c0.8-0.2,1.5-0.4,2.1-0.7c0.4-0.2,0.7-0.1,0.8,0.2l1,2.2c0.2,0.4,0.1,0.7-0.3,0.9
				c-1,0.6-2,1-3.2,1.2c-1.1,0.2-2.3,0.3-3.3,0.3c-3.1,0-5.5-0.8-7.1-2.5c-1.6-1.7-2.5-4.4-2.5-8c0-1.7,0.2-3.2,0.7-4.6
				c0.5-1.3,1.1-2.5,1.9-3.4c0.8-0.9,1.8-1.6,2.9-2.1C109.5,26,110.7,25.7,112,25.7 M112.1,29.5c-0.7,0-1.3,0.1-1.8,0.4
				c-0.5,0.3-1,0.6-1.4,1.1c-0.4,0.5-0.7,1-0.9,1.6c-0.2,0.6-0.4,1.2-0.4,1.9h8.8c0-0.7-0.1-1.4-0.2-2c-0.1-0.6-0.3-1.1-0.7-1.6
				c-0.3-0.5-0.8-0.8-1.3-1.1C113.7,29.6,113,29.5,112.1,29.5"/>
			<path class="st0" d="M139.3,44.7c0,1.8-0.2,3.3-0.6,4.5c-0.4,1.2-1.1,2.3-2,3.1c-0.9,0.8-1.9,1.5-3.2,1.9c-1.3,0.5-2.8,0.8-4.4,1
				c-0.4,0.1-0.7-0.1-0.7-0.4l-0.4-3c0-0.3,0.1-0.5,0.5-0.6c0.9-0.2,1.8-0.3,2.6-0.6c0.8-0.2,1.4-0.5,2-0.9c0.5-0.4,1-0.8,1.3-1.4
				c0.3-0.6,0.4-1.2,0.4-2.1v-0.2c-0.7,0.2-1.5,0.4-2.4,0.5c-0.9,0.1-1.6,0.2-2.4,0.2c-1.5,0-2.8-0.3-3.9-0.8
				c-1.1-0.5-2-1.2-2.7-2.1c-0.7-0.9-1.3-2-1.6-3.2c-0.3-1.3-0.5-2.7-0.5-4.2c0-1.6,0.2-3,0.6-4.3c0.4-1.3,1-2.5,1.8-3.4
				c0.8-0.9,1.8-1.7,3-2.2c1.2-0.5,2.7-0.8,4.3-0.8c1.3,0,2.6,0.1,4,0.3c1.4,0.2,2.6,0.5,3.8,1.1c0.3,0.1,0.4,0.3,0.5,0.4
				c0.1,0.1,0.1,0.3,0.1,0.5V44.7z M125.8,36.4c0,2.3,0.4,4,1.3,5c0.9,1.1,2.1,1.6,3.6,1.6c0.4,0,1,0,1.7-0.1
				c0.7-0.1,1.5-0.2,2.3-0.5V30.1c-0.6-0.2-1.2-0.3-1.9-0.4c-0.7-0.1-1.2-0.1-1.8-0.1c-0.8,0-1.5,0.1-2.2,0.4
				c-0.7,0.2-1.2,0.6-1.7,1.2c-0.5,0.5-0.8,1.2-1.1,2.1C126,34.1,125.8,35.1,125.8,36.4"/>
			<path class="st0" d="M151.4,43.1c0.3,0,0.7,0,1.2,0c0.5,0,1.1-0.1,1.8-0.2V26.8c0-0.3,0-0.5,0.2-0.5c0.1-0.1,0.3-0.1,0.6-0.1h3
				c0.3,0,0.4,0,0.6,0.1c0.1,0.1,0.2,0.3,0.2,0.5v16.6c0,0.9-0.2,1.6-0.6,2.2c-0.4,0.5-1.1,0.9-2,1.1c-0.3,0.1-0.7,0.1-1.2,0.2
				c-0.4,0-0.9,0.1-1.3,0.1c-0.5,0-0.9,0.1-1.3,0.1c-0.4,0-0.8,0-1.2,0c-1.7,0-3.2-0.2-4.4-0.5c-1.2-0.4-2.2-0.9-2.9-1.7
				c-0.7-0.8-1.3-1.8-1.6-3.1c-0.3-1.3-0.5-2.8-0.5-4.6V26.8c0-0.3,0-0.5,0.2-0.5c0.1-0.1,0.3-0.1,0.6-0.1h3c0.3,0,0.4,0,0.6,0.1
				c0.1,0.1,0.2,0.3,0.2,0.5v10.3c0,1,0.1,1.9,0.2,2.6c0.1,0.8,0.4,1.4,0.8,1.9c0.4,0.5,0.9,0.9,1.6,1.1
				C149.5,43,150.3,43.1,151.4,43.1"/>
			<path class="st0" d="M166.1,46.5c-0.1,0.1-0.3,0.1-0.6,0.1h-3c-0.2,0-0.4,0-0.6-0.1c-0.1-0.1-0.2-0.3-0.2-0.5V29.3
				c0-1,0.2-1.8,0.5-2.3c0.3-0.5,1.1-0.8,2.2-1c0.5-0.1,0.9-0.1,1.4-0.1c0.5,0,1-0.1,1.4-0.1c1.6,0,3.1,0.2,4.5,0.6
				c1.4,0.4,2.8,1.1,3.9,2.1c0.2,0.1,0.3,0.3,0.2,0.4c0,0.1-0.1,0.2-0.1,0.4l-1.8,2.6c-0.1,0.2-0.3,0.3-0.4,0.3
				c-0.1,0-0.3-0.1-0.5-0.2c-0.7-0.6-1.5-1.1-2.4-1.5c-0.9-0.3-1.8-0.5-2.8-0.5c-0.3,0-0.6,0-0.9,0c-0.3,0-0.6,0.1-0.9,0.1v16
				C166.3,46.2,166.2,46.4,166.1,46.5"/>
			<path class="st0" d="M194.2,36.3c0,3.4-0.8,6.1-2.4,7.9c-1.6,1.9-3.9,2.8-7,2.8c-3.1,0-5.4-0.9-6.9-2.7c-1.5-1.8-2.3-4.4-2.3-7.9
				c0-1.7,0.2-3.2,0.7-4.5c0.5-1.3,1.1-2.4,1.9-3.3c0.8-0.9,1.8-1.6,2.9-2.1c1.1-0.5,2.4-0.7,3.8-0.7c3.1,0,5.4,0.9,6.9,2.8
				C193.4,30.4,194.2,33,194.2,36.3 M189.6,36.4c0-0.9-0.1-1.8-0.2-2.6c-0.1-0.8-0.4-1.6-0.7-2.2c-0.3-0.6-0.8-1.1-1.4-1.5
				c-0.6-0.4-1.4-0.5-2.3-0.5c-0.8,0-1.5,0.2-2.2,0.5c-0.6,0.3-1.1,0.8-1.5,1.4c-0.4,0.6-0.7,1.3-0.9,2.1c-0.2,0.8-0.3,1.7-0.3,2.7
				c0,2.2,0.3,3.9,1,5.1c0.7,1.2,1.9,1.8,3.7,1.8c0.9,0,1.6-0.2,2.3-0.6c0.6-0.4,1.1-0.9,1.5-1.5c0.4-0.6,0.6-1.3,0.8-2.2
				C189.5,38.2,189.6,37.3,189.6,36.4"/>
			<path class="st0" d="M210.1,40.9c0,1-0.2,1.9-0.6,2.7c-0.4,0.8-0.9,1.4-1.6,1.9c-0.7,0.5-1.5,0.9-2.4,1.1c-0.9,0.2-1.9,0.4-3,0.4
				c-0.6,0-1.3,0-2-0.1c-0.7-0.1-1.4-0.2-2.1-0.3c-0.7-0.1-1.4-0.3-2-0.5c-0.6-0.2-1.2-0.5-1.8-0.8c-0.4-0.2-0.5-0.5-0.3-0.9
				l0.9-2.2c0.1-0.2,0.3-0.4,0.4-0.4c0.1-0.1,0.3,0,0.6,0.1c0.9,0.4,2,0.8,3.1,1c1.1,0.2,2.1,0.4,3,0.4c1.1,0,1.9-0.2,2.4-0.6
				c0.5-0.4,0.8-1,0.8-1.7c0-0.7-0.3-1.3-1-1.8c-0.7-0.4-1.7-0.9-3.1-1.4c-1-0.4-2-0.8-2.7-1.2c-0.8-0.4-1.4-0.8-1.9-1.3
				c-0.5-0.5-0.9-1-1.2-1.6c-0.3-0.6-0.4-1.3-0.4-2.1c0-0.9,0.2-1.6,0.5-2.3c0.3-0.7,0.8-1.3,1.4-1.8c0.6-0.5,1.4-0.9,2.3-1.2
				c0.9-0.3,1.9-0.5,3.1-0.5c1.1,0,2.1,0.1,3.2,0.3c1.1,0.2,2.1,0.5,3.1,0.9c0.2,0.1,0.3,0.2,0.4,0.4c0,0.2,0,0.3,0,0.6l-0.9,2.2
				c-0.1,0.2-0.2,0.3-0.3,0.3c-0.1,0-0.3,0-0.5-0.1c-1-0.4-1.9-0.6-2.6-0.7c-0.8-0.1-1.6-0.2-2.4-0.2c-0.9,0-1.6,0.2-2.1,0.6
				c-0.4,0.4-0.7,0.9-0.7,1.3c0,0.4,0.1,0.7,0.2,0.9c0.1,0.3,0.4,0.5,0.7,0.7c0.3,0.2,0.7,0.5,1.2,0.7c0.5,0.2,1.1,0.5,1.8,0.8
				c0.8,0.3,1.6,0.6,2.4,1c0.8,0.3,1.5,0.8,2.1,1.3c0.6,0.5,1.1,1.1,1.4,1.7C209.9,39.1,210.1,39.9,210.1,40.9"/>
		</g>
	</g>
	<path class="st1" d="M34.9,10.7C22.9,10.7,13,20.5,13,32.6l0,2.3l2.2-0.5c5.9-1.3,11.9-2,17.9-2.1v18.7c0,3.5,2.9,6.4,6.4,6.4
		s6.4-2.9,6.4-6.4c0-1-0.8-1.8-1.8-1.8c-1,0-1.8,0.8-1.8,1.8c0,1.6-1.3,2.8-2.8,2.8c-1.6,0-2.8-1.3-2.8-2.8V32.2
		c6,0.1,12.1,0.8,17.9,2.1l2.2,0.5l0-2.3C56.8,20.5,47,10.7,34.9,10.7z M34.9,28.6c-6.1,0-12.2,0.6-18.2,1.8
		c1.1-9.1,8.8-16.2,18.2-16.2s17.1,7.1,18.2,16.2C47.2,29.2,41.1,28.6,34.9,28.6z"/>
	<g>
		<path class="st2" d="M34.9,14.9c-9.4,0-17.1,7.1-18.2,16.2c6-1.2,12.1-1.8,18.2-1.8c6.1,0,12.2,0.6,18.2,1.8
			C52.1,22,44.3,14.9,34.9,14.9z"/>
		<path class="st2" d="M35.3,0c-18.8,0-34,15.2-34,34c0,18.8,15.2,34,34,34s34-15.2,34-34C69.3,15.2,54.1,0,35.3,0z M56.8,35.6
			l-2.2-0.5c-5.9-1.3-11.9-2-17.9-2.1v18.7c0,1.6,1.3,2.8,2.8,2.8c1.6,0,2.8-1.3,2.8-2.8c0-1,0.8-1.8,1.8-1.8c1,0,1.8,0.8,1.8,1.8
			c0,3.5-2.9,6.4-6.4,6.4s-6.4-2.9-6.4-6.4V32.9c-6,0.1-12.1,0.8-17.9,2.1L13,35.6l0-2.3c0-12.1,9.8-21.9,21.9-21.9
			c12.1,0,21.9,9.8,21.9,21.9L56.8,35.6z"/>
	</g>
</g>
</svg>
